<?xml version="1.0" encoding="utf-8"?>
<!-- Generator: Adobe Illustrator 24.3.0, SVG Export Plug-In . SVG Version: 6.00 Build 0)  -->
<svg version="1.1" id="Livello_1" xmlns="http://www.w3.org/2000/svg" xmlns:xlink="http://www.w3.org/1999/xlink" x="0px" y="0px"
	 viewBox="0 0 1159.4 352.1" style="enable-background:new 0 0 1159.4 352.1;" xml:space="preserve">
<style type="text/css">
	.st0{fill:#0B38B5;}
</style>
<g id="Livello_2_1_">
	<g id="Livello_1-2">
		<path class="st0" d="M306.7,265.3l-0.4-173.4l-76.7,44.3l-3-5.3l76.7-44.3L153.6,0L3.1,86.6l76.7,44.3l-3,5.3L0,91.9l0.4,173.4
			l149.9,86.5v-88.7h6v89L306.7,265.3z M175.6,154.4L172,154c-0.7-0.4-0.8-2.3-0.1-2.8c3.4-0.5,6.8-1.3,10.1-2.2
			c3.5-1,6.5-2.5,7-2.5c0.4,0,0.6,0.2,0.8,0.9c-0.2,1.8-0.5,5.4-0.5,9.4v30c0,6.3,0.8,7.1,4.6,7.4l3.4,0.2c0.7,0.5,0.7,2.5-0.1,2.8
			c-2.8-0.2-7.5-0.2-12.4-0.2c-5.2,0-9.9,0.1-12.7,0.2c-0.8-0.2-0.9-2.3-0.1-2.8l3.1-0.2c3.9-0.3,4.2-1.1,4.2-7.4v-25.4
			C179.3,156.1,179.1,154.9,175.6,154.4z M153.7,165.8c3.6,0.1,6.4,3,6.4,6.6c0,0.1,0,0.1,0,0.2c0.1,3.3-2.5,6.1-5.8,6.1
			c-0.2,0-0.3,0-0.5,0c-3.4,0.1-6.3-2.7-6.4-6.1c0,0,0,0,0,0c-0.1-3.6,2.6-6.6,6.2-6.8C153.6,165.8,153.6,165.8,153.7,165.8z
			 M135.9,197.1c-2.8-0.2-7.6-0.2-12.4-0.2c-5.2,0-9.9,0.1-12.7,0.2c-0.8-0.2-0.9-2.3-0.2-2.8l3.3-0.2c3.9-0.3,4.4-1.1,4.4-7.4
			v-25.4c0-5.2-0.4-6.4-3.9-6.8l-3.7-0.5c-0.7-0.8-0.8-1.9-0.2-2.8c3.4-0.5,6.8-1.3,10.1-2.2c3.5-1,6.4-2.5,7-2.5
			c0.5,0,0.9,0.4,1,0.9c-0.2,1.8-0.3,5.4-0.3,9.4v30c0,6.3,0.6,7.1,4.4,7.4l3.3,0.2C136.7,194.8,136.7,196.8,135.9,197.1z
			 M153.7,197.9c-3.6,0-6.5-2.8-6.5-6.4s2.8-6.5,6.4-6.5s6.5,2.8,6.5,6.4c0,0.1,0,0.1,0,0.2c0.1,3.4-2.5,6.3-5.9,6.4
			C154,197.9,153.8,197.9,153.7,197.9L153.7,197.9z"/>
		<path class="st0" d="M372,203.6c0-12.5,6.8-30.6,17.9-43.1c11.9-13.3,24.9-18.9,35.8-18.9c11.5,0,20.3,5.4,20.3,15.3
			c0,7.6-6.4,12.5-13.5,12.5c-5,0-7.8-3-8-7.4c-0.2-3.8-0.2-11.7-4-11.7c-3.2,0-7.5,3.8-12.3,12.5c-5.2,9.7-9.8,22.5-9.8,36.2
			c0,9.5,3.6,13.1,8.4,13.1s11.7-3.2,20.7-12.7c2.6,0,4.6,2,4.2,4.4c-6.6,10.3-22.3,22.9-39.6,22.9C378.9,226.7,372,217.5,372,203.6
			"/>
		<path class="st0" d="M517.2,148.9l4.6-9.3c1.6-1,3.5-1.4,5.4-1.4c2.5,0,5,0.4,7.3,1.2c3.4,1,6.4,3.2,7.4,5.2
			c-7.5,18.7-16.3,40.8-23.9,62.8c-0.8,2.6-1,4.2,0.4,4.2c2.8,0,12.5-6,18.7-12.3c2.1,0,3.8,1.7,3.8,3.9c0,0.2,0,0.3,0,0.5
			c-8.8,12.3-25.8,23.3-39.8,23.3c-4.3,0-7.7-3.5-7.8-7.8c0-2.2,1-5.2,2.2-8.4l6-15.3h-0.8c-11.7,15.5-30.8,31.2-45.3,31.2
			c-6.2,0-12.1-5.8-12.1-12.3c0-11.7,11.7-36.6,29.8-52.9c13.1-11.7,24.9-17.1,35.4-17.1C510.4,144.3,514.4,146.1,517.2,148.9
			 M504,153.1c-3,0-6.6,1.8-13.3,10.3c-9.9,12.6-19.7,32.2-19.7,43.3v1.8c0.2,2,1.2,3.2,2.8,3.2c4.4,0,15.3-11.7,21.3-19.7
			c7.1-9.6,14.9-24.9,17.3-31.4C510,154.9,507.2,153.1,504,153.1"/>
		<path class="st0" d="M593.3,154.1l-8.9,23.5h0.4c10.7-15.5,27.6-36,44.3-36c8.8,0,10.9,6.4,10.9,11.5c0,4-3.6,12.5-8.5,24.4h0.6
			c13.5-21.3,30-36,44.3-36c9.1,0,13.1,6.9,13.1,12.1c0,4.8-1.6,10.9-4,17.1c-3.8,9.9-8.8,21.5-14.7,35.6c-1.2,2.8-0.8,4.4,0.8,4.4
			c3.6,0,12.1-7.8,17.7-13.5c1.8-0.4,3.6,0.8,4,2.6c0.1,0.4,0.1,0.8,0,1.2c-5.6,9.9-22.1,25.6-42,25.6c-4.6,0-8.5-4.2-8.5-7.8
			c0-3,1.4-7,3-10.7c6-13.9,11.9-27.6,16.9-41.6c1.8-4.8,2.6-7.4,2.6-9.4c0.2-1.4-0.8-2.6-2.2-2.8c-0.2,0-0.4,0-0.6,0
			c-2.2,0-7.6,3.8-14.5,12.7c-11.3,14.1-21.7,36.8-30.2,55.1c-1.6,3.6-4,4.4-8.2,4.4c-8.8,0-15.1-2.2-13.7-6.4
			c0.8-2.4,12.5-32.8,20.7-53.7c2-4.8,2.8-7.4,2.8-9.4c0-1.5-1.1-2.7-2.6-2.8c0,0-0.1,0-0.1,0c-2.6,0-8.5,3.8-16.3,13.5
			c-10.5,13.3-20.7,36-28.8,55.1c-1.2,2.8-3.2,3.6-7.8,3.6c-8.5,0-14.9-2.2-13.5-6.4c0.8-2.6,16.7-46.9,19.7-55.5
			c2.4-6.8,1.6-8.1-1.4-8.1c-6.8,0-12.5,7.4-16.1,11.3c-2.2,0.1-4.2-1.5-4.4-3.8c5.8-12.9,18.5-22.7,37.6-22.7
			C595.3,141.5,595.3,148.7,593.3,154.1"/>
		<path class="st0" d="M753.6,144.9c1.8-0.3,3.7-0.5,5.6-0.6c25,0,33.2,13.5,33.2,29.2c0,10.9-6.2,25.6-14.9,34.6
			c-10.1,10.3-23.7,18.5-41,18.5c-2.8-0.2-5.6-0.8-8.2-2c-1.4,0.2-2.2,1.4-2.8,3.4l-8.9,26.4c-2.2,6.8-2.6,11.5,5,12.3l8.3,0.8
			c2.4,1,2,6-1,6.8h-14.1c-12.3,0-24.5,0.8-41,2.2c-2.6-1.2-2.8-5.4-1-7l6.4-1c8.3-1.4,10.3-4.6,14.9-17.9l31.4-92.2
			c-4.8,1-15.1,5.6-20.7,8.6c-2.6-0.4-3.6-3.8-2.4-5.8c3.6-4.2,19.1-11.7,26.4-13.7l5.8-14.9c1.8-1.6,4.8-2.8,9.5-2.8
			c7,0,12.3,1.8,13.3,3.8L753.6,144.9z M732.9,206.6c-0.8,2.4-1.6,5.6,1,8.2c1.5,1.8,3.8,3,6.2,3.2c2.4,0,7-2.2,11.7-8
			c8.8-10.1,15.1-25.8,15.1-39c0-11.7-6.4-16.3-13.1-16.3c-1.1,0.1-2.1,0.2-3.2,0.4L732.9,206.6z"/>
		<path class="st0" d="M885.6,170.6c0,14.3-7,31-18.5,42.2c-9,8.9-21.1,13.9-33.8,13.9c-20.3,0-29-13.7-28.8-27.6
			c0.2-15.3,7.5-33.4,20.9-44.9c11.5-9.9,22.1-12.5,31-12.5C877.6,141.6,885.6,156.3,885.6,170.6 M847,157.9
			c-7.2,8.9-19.7,32.8-19.7,51.9c0,5,2.4,8.2,6.2,8.2c5,0,9.3-4.6,14.7-13.3c5.4-9,15.1-30.8,15.1-45.9c0-4.2-1.2-8.4-5.6-8.4
			C854.5,150.3,851.2,152.7,847,157.9"/>
		<path class="st0" d="M957.8,157.5c0,7.8-6.2,10.3-9.1,10.3c-1.8,0-3.4-1.4-4.6-2.8c-8-9.1-11.7-11.3-15.7-11.3
			c-2.8,0.1-5.1,2.4-5.2,5.2c0,2.2,1.2,5,5.2,9l7.5,7.8c7,7.1,10.1,13.3,10.1,20.3c0,8.1-4.4,15.9-11.9,22.1
			c-7,5.8-15.8,8.9-24.8,8.8c-9.2,0-19.7-5.6-19.7-15.3c0-6.4,4.6-11.5,9.7-11.5c2.2,0,3.8,2,6.2,4.4c7.8,8.1,11.7,10.3,15.7,10.3
			c3.6,0,6.8-2.8,6.8-5.8c0-2.8-1.8-6-5.8-10.1l-6.6-7c-6.2-6.4-9.7-12.9-9.7-20.1c0-8.6,5.2-16.5,11.1-21.7
			c5.8-4.8,13.1-8.4,21.3-8.4C949,141.6,957.8,148.5,957.8,157.5"/>
		<path class="st0" d="M1029.9,148.9l4.6-9.3c1.6-1,3.5-1.4,5.4-1.4c2.5,0,5,0.4,7.4,1.2c3.4,1,6.4,3.2,7.3,5.2
			c-7.6,18.7-16.3,40.8-23.9,62.8c-0.8,2.6-1,4.2,0.4,4.2c2.8,0,12.5-6,18.7-12.3c2.1,0,3.8,1.7,3.8,3.9c0,0.2,0,0.3,0,0.5
			c-8.8,12.3-25.8,23.3-39.8,23.3c-4.3,0-7.7-3.5-7.8-7.8c0-2.2,1-5.2,2.2-8.4l6-15.3h-0.8c-11.7,15.5-30.8,31.2-45.3,31.2
			c-6.2,0-12.1-5.8-12.1-12.3c0-11.7,11.7-36.6,29.8-52.9c13.1-11.7,24.8-17.1,35.4-17.1C1023.2,144.3,1027.2,146.1,1029.9,148.9
			 M1016.8,153.1c-3,0-6.6,1.8-13.3,10.3c-9.9,12.5-19.7,32.2-19.7,43.3v1.8c0.2,2,1.2,3.2,2.8,3.2c4.4,0,15.3-11.7,21.3-19.7
			c7.2-9.6,14.9-24.9,17.3-31.4C1022.8,154.9,1020,153.1,1016.8,153.1"/>
		<path class="st0" d="M1076.4,205.2c17.3-14.5,32.6-25.2,47.7-37.4c1.6-1.4,1.8-2.6-0.4-3.4c-8.4-2.8-17.1-4.5-25.8-5
			c-2.8,0-4.8,1.8-4.8,3.8c0,3.4,4.6,5.8,4.6,8.8c0,3.2-3.2,6.2-7.6,6.4c-6,0.2-10.3-4-10.3-9.4c0-6.8,5.2-13.1,10.7-18.1
			c6.2-5.2,14-8,22.1-8c6,0,12.5,2.2,16.9,3.8c5.2,1.8,8.2,2.6,11.3,2.6c4.6,0,7.2-2.2,10.5-6.8c4.1-0.3,7.7,2.8,8.1,6.9
			c0.1,1,0,1.9-0.3,2.8c-27.2,20.9-40.2,31.8-58.5,46.9v0.9c6,0,9.9,1.2,18.3,5.8c7.3,4,14.1,7.2,17.1,7.2c3.4,0,5.8-1.6,5.8-4
			c0.2-4.4-4.8-9.5-4.8-14.7c0.1-3.2,2.9-5.7,6.1-5.6c0,0,0.1,0,0.1,0c7.6,0,12.7,7.8,12.5,13.7c-0.2,7.4-5.2,13.9-10.3,17.9
			c-5.4,4.2-13.5,7.8-21.5,7.8c-7.6,0-14.1-2.6-21.1-6.4c-3.8-2-10.1-4.8-14.3-4.8c-3.8,0-8,2.6-10.5,9.6
			c-8.8,0.6-11.7-4.2-11.7-7.6C1066.2,214.9,1069.4,211.1,1076.4,205.2"/>
	</g>
</g>
</svg>
