<svg xmlns="http://www.w3.org/2000/svg" viewBox="0 0 132.24 132.24"><defs><style>.cls-1{fill:#0b38b5;}</style></defs><g id="Livello_2" data-name="Livello 2"><g id="Livello_1-2" data-name="Livello 1"><path class="cls-1" d="M132.24,66.12A26.42,26.42,0,0,0,120,43.81,26.45,26.45,0,0,0,88.43,12.25a26.44,26.44,0,0,0-44.62,0A26.46,26.46,0,0,0,12.25,43.81a26.44,26.44,0,0,0,0,44.62A26.45,26.45,0,0,0,43.81,120a26.44,26.44,0,0,0,44.62,0A26.44,26.44,0,0,0,120,88.43,26.42,26.42,0,0,0,132.24,66.12ZM60.38,80a26.33,26.33,0,0,0-8.11-8.12,26.46,26.46,0,0,0,0-11.48,26.44,26.44,0,0,0,8.11-8.11,26.46,26.46,0,0,0,11.48,0A26.33,26.33,0,0,0,80,60.38a26.46,26.46,0,0,0,0,11.48A26.22,26.22,0,0,0,71.86,80a26.46,26.46,0,0,0-11.48,0Z"/></g></g></svg>